<svg xmlns="http://www.w3.org/2000/svg" width="27.16" height="17.935" viewBox="0 0 27.16 17.935">
  <g id="credit-card-2625_af4bac5a-6c79-4146-85fb-5bda5c82aeff" transform="translate(1 1)">
    <path id="layer2" d="M27.161,14.258A1.258,1.258,0,0,0,25.9,13H3.258A1.258,1.258,0,0,0,2,14.258v2.935H27.161Z" transform="translate(-2 -13)" fill="#7b8baf"/>
    <path id="layer1" d="M2,23V33.484a1.258,1.258,0,0,0,1.258,1.258H25.9a1.258,1.258,0,0,0,1.258-1.258V23" transform="translate(-2 -18.807)" fill="#78d1f4"/>
    <path id="opacity" d="M20,13,35.935,28.935h.419a1.258,1.258,0,0,0,1.258-1.258v-.419L23.355,13ZM37.613,23.945v-6.29L32.916,13H26.542Z" transform="translate(-12.452 -13)" fill="#fff" opacity="0.2"/>
    <path id="stroke" d="M27.161,14.258A1.258,1.258,0,0,0,25.9,13H3.258A1.258,1.258,0,0,0,2,14.258v2.935H27.161ZM2,17.193V27.677a1.258,1.258,0,0,0,1.258,1.258H25.9a1.258,1.258,0,0,0,1.258-1.258V17.193M5.355,20.548h8.387m7.548,0h2.516M5.355,23.9H8.71" transform="translate(-2 -13)" fill="none" stroke="#2e4369" stroke-linecap="round" stroke-linejoin="round" stroke-width="2"/>
  </g>
</svg>
